<svg width="1440" height="2091" viewBox="0 0 1440 2091" fill="none" xmlns="http://www.w3.org/2000/svg">
<g opacity="0.9">
<path fill-rule="evenodd" clip-rule="evenodd" d="M-537.452 1794.96C-407.386 1614.92 -249.905 1450.5 72.3593 1216.87C305.68 1047.7 513.025 858.353 731.469 814.528C939.404 772.789 1133.18 853.583 1268.06 854.138C1391.61 850.202 1391.86 757.955 1421.49 695.639C1447.46 640.953 1483.96 591.642 1527.38 544.259C1573.18 494.308 1625.19 445.528 1684.64 402.026C1788.86 315.351 1908.78 252.912 2035.7 235.821C2110.12 225.797 2177.35 234.214 2238.53 254.746L2239.23 263.84C2228.82 260.412 2218.16 257.144 2207.54 254.495C2066.85 219.403 1903.2 250.549 1733.8 371.224C1650.82 430.333 1581.03 493.067 1527.55 557.465C1474.45 621.352 1434.74 686.584 1407.36 757.002C1390.95 799.194 1375.69 846.112 1306.08 855.598C1182.79 872.432 989.719 820.167 771.807 808.48C662.476 835.591 542.474 878.009 427.663 951.18C307.175 1027.95 190.736 1122.48 74.2282 1214.85C-252.503 1434.04 -406.861 1606.61 -538.443 1781.98L-537.452 1794.96Z" fill="#3B5E9C"/>
<g filter="url(#filter0_d_898_8747)">
<path fill-rule="evenodd" clip-rule="evenodd" d="M-580.265 1234.11C-469.201 1176.7 -336.928 1127.81 -158.229 1084.56C-12.3119 1029.45 118.884 976.769 233.06 922.611C447.435 823.665 686.021 715.109 892.419 717.395C1104.3 719.773 1273.3 768.079 1332.42 700.734C1367.84 660.381 1372.95 606.374 1396.37 556.788C1433.22 470.844 1493.77 396.098 1561.79 324.733C1634.18 248.832 1715.03 179.316 1803.14 128.08C1942.66 41.4689 2091.14 26.8645 2225.29 82.0631L2225.75 88.0457C2217.67 84.6504 2209.65 81.2511 2201.58 78.307C2066.22 29.1182 1910.05 49.7957 1743.29 169.768C1649.93 236.909 1574.03 313.178 1511.38 391.454C1451.1 466.65 1406.34 543.3 1377.61 625.505C1359.81 672.858 1345.72 723.768 1269.92 742.432C1133.47 766.829 932.818 734.88 708.961 736.114C573.35 773.492 441.502 822.355 315.038 882.103C178.005 947.022 38.7449 1011.51 -96.3877 1064.51C-306.678 1118.49 -457.476 1171.02 -580.503 1230.99L-580.265 1234.11Z" fill="#D42D38"/>
</g>
<path fill-rule="evenodd" clip-rule="evenodd" d="M-562.477 1467.08C-517.769 1431.11 -475.708 1394.63 -435.373 1354.38C-244.45 1149.63 -74.7509 973.7 235.763 867.044C364.673 822.763 468.038 786.41 569.404 757.329C754.002 730.54 977.3 738.024 1164.82 794.113C1361.76 852.983 1519.01 893.34 1575.32 808.016C1606.46 760.829 1616.44 702.439 1640.88 647.229C1677.72 557.434 1734.14 480.917 1796.33 413.147C1861.93 341.786 1933.9 282.516 2010.47 242.662C2085.02 203.874 2160.39 186.337 2233.62 190.304L2234.59 202.927C2166.82 198.542 2093.7 213.873 2015.7 254.208C1923.88 301.704 1845.04 372.642 1781.07 455.883C1712.54 534.956 1660.8 625.668 1628.72 722.994C1600.74 799.827 1578.37 882.089 1430.6 871.858C1277.63 850.589 1113.64 767.07 927.129 739.397C728.172 709.886 511.123 768.087 292.494 844.491C220.255 869.753 131.816 905.117 38.2425 947.985C-195.652 1055.1 -356.347 1244.79 -565.867 1422.67L-562.477 1467.08Z" fill="#1187CC"/>
<path fill-rule="evenodd" clip-rule="evenodd" d="M-578.298 1259.9C-523.816 1226.87 -473.318 1191 -424.389 1153.42C-214.322 975.178 -33.2042 831.815 269.941 780.37C443.97 750.837 579.044 724.399 732.167 706.09C895.154 718.66 1086.23 760.988 1248.84 814.706C1416.52 870.103 1552.89 893.23 1613.27 816.31C1639.27 774.058 1654.02 724.743 1675 676.596C1713.43 581.144 1772.2 502.101 1837.36 434.655C1905.79 363.841 1981.23 308.337 2060.74 275.059C2120.32 250.101 2179.79 239.112 2237.61 241.869L2237.82 244.621C2157.53 238.976 2071.2 261.262 1979.36 319.712C1898.72 371 1833.91 434.748 1781.67 508.438C1726.57 578.677 1685.91 656.758 1653.57 741.154C1625.58 814.217 1592.36 891.4 1451.62 874.093C1293.1 854.633 1117.7 782.786 937.058 725.039C735.103 710.098 518.256 730.353 324.079 768.896C253.178 782.954 160.702 805.749 59.1502 834.904C-174.416 901.977 -352.004 1078.19 -580.281 1233.93L-578.298 1259.9Z" fill="#F68CBF"/>
<path fill-rule="evenodd" clip-rule="evenodd" d="M-582.25 1208.16C-532.498 1180.39 -484.39 1150.07 -438.145 1117.32C-223.734 950.513 -37.4377 815.43 245.061 772.893C448.804 742.215 598.866 698.585 770.38 702.622C936.208 706.53 1121.06 773.133 1278.83 824.753C1440.52 877.688 1572.92 894.75 1627.62 814.663C1659.37 768.192 1672.04 710.671 1697.24 657.979C1776.4 470.399 1923.78 343.082 2073.31 285.131C2128.92 263.586 2184.32 253.67 2238.63 255.953L2238.72 257.239C2158.08 250.899 2071.34 272.545 1978.98 330.784C1895.75 383.272 1829.5 449.607 1777.44 525.861C1722.24 598.695 1684.47 680.106 1662.05 769.201C1629 889.616 1419.75 863.227 1176.04 778.332C1035.47 729.38 899.207 694.502 767.009 692.218C621.408 689.684 471.102 723.282 301.986 756.221C252.143 765.933 194.115 779.721 131.864 794.402C4.97544 818.992 -109.519 873.726 -224.22 943.73C-337.927 1013.1 -451.953 1095.58 -577.405 1165.49C-580.187 1166.98 -582.711 1168.09 -585.223 1169.21L-582.25 1208.16Z" fill="#95CF49"/>
<path fill-rule="evenodd" clip-rule="evenodd" d="M-586.915 1147.06C-520.078 1116.02 -457.397 1081.18 -399.663 1041.5C-194.489 900.703 -14.1135 789.029 253.941 756.58C488.776 728.162 661.329 686.687 864.739 707.012C1024.38 722.906 1190.88 799.775 1335.39 845.588C1481.52 891.97 1601.33 898.258 1652.29 823.402C1683.02 778.281 1696.14 723.103 1720.68 673.24C1804.46 481.978 1953.67 357.428 2103.34 307.05C2149.46 291.494 2195.6 283.809 2240.86 285.319L2241.1 288.439C2137.72 283.635 2023.52 326.321 1912.03 427.782C1855.99 478.766 1812.1 533.606 1774.93 591.694C1738.16 649.119 1710.89 709.33 1683.67 772.294C1654.1 840.744 1612.35 899.092 1483.48 886.524C1314.39 858.605 1132.92 785.275 947.724 721.257C737.865 701.394 515.611 717.207 308.764 747.39C188.179 765.01 25.3078 775.298 -174.328 885.444C-319.832 965.753 -451.278 1051.15 -589.098 1118.87L-586.915 1147.06Z" fill="#BCBADA"/>
<g filter="url(#filter1_d_898_8747)">
<path fill-rule="evenodd" clip-rule="evenodd" d="M-591.632 1085.28C-577.39 1086.2 -563.151 1086.95 -548.382 1087.11C-220.408 1043.33 -35.4548 884.791 135.252 759.573C313.209 649.979 470.74 571.42 699.97 587.708C834.255 597.244 945.702 637.738 1070.36 678.778C1220.5 750.277 1400.6 841.974 1560.47 901.648C1719.29 960.93 1856.23 954.478 1917.92 838.255C1940.12 792.051 1954.56 742.398 1973.2 694.63C2038.11 517.736 2137.27 392.084 2243.57 320.143L2243.05 313.383C2220.97 328.172 2200.25 344.705 2181.13 362.8C2089.46 447.022 2013.01 567.301 1974.55 715.548C1929.4 802.487 1890.61 897.245 1770.26 920.052C1624.72 927.653 1465.55 859.25 1305.35 773.446C1114.6 692.912 921.969 615.56 745.07 590.343C639.225 575.246 488.53 567.906 293.394 654.992C122.695 731.207 -25.9641 853.187 -196.037 952.25C-310.715 1015.45 -438.333 1057 -594.301 1049.06L-591.632 1085.28Z" fill="#FBCF4B"/>
</g>
<path fill-rule="evenodd" clip-rule="evenodd" d="M-583.059 1197.54C-531.503 1175.55 -481.457 1153.3 -435.559 1124.68C-243.6 1004.91 -70.1564 899.374 169.509 852.094C358.668 814.747 503.024 774.762 663.672 741.347C839.266 740.258 1037.25 771.809 1207.84 830.765C1385.94 892.306 1533.4 931.986 1612.68 869.059C1642.59 845.293 1661.6 812.551 1682.71 782.227C1737.08 622.625 1865.18 517.108 2002.08 458.978C2087.51 422.68 2172.13 408.658 2251.26 421.732L2251.5 424.853C2230.79 421.096 2209.71 419.251 2188.58 419.347C2095.64 419.161 1995.55 453.399 1909.78 516.23C1811.82 578.528 1730.87 666.555 1689.9 778.017C1641.19 841.338 1604.61 916.029 1472.53 909.946C1309.79 885.583 1135.95 787.491 941.065 751.872C725.272 712.424 491.635 777.036 287.692 823.635C162.865 852.22 -13.2596 868.674 -247.965 1001.01C-361.762 1065.15 -472.481 1122.34 -585.168 1169.92L-583.059 1197.54Z" fill="#6267BA"/>
<g filter="url(#filter2_d_898_8747)">
<path fill-rule="evenodd" clip-rule="evenodd" d="M-575.334 1298.66C-340.811 1255.01 -182.29 1122.05 -34.9478 1001.37C135.296 862.007 294.331 758.651 498.06 724.715C609.44 709.392 705.113 701.417 798.34 712.452C889.762 723.275 976.868 749.801 1069 789.824C1214.59 853.075 1368.31 941.18 1504.8 994.936C1639.82 1048.1 1754.4 1050.81 1806.81 974.828C1835.95 932.568 1850.46 883.381 1874.41 837.043C1960.73 660.139 2095.92 550.471 2230.04 507.517C2239.12 504.597 2248.12 501.713 2257.23 499.544L2257.37 501.378C2180.98 520.448 2101.81 566.238 2024.71 641.646C1978.99 686.355 1943.63 733.995 1911.81 784.905C1880.72 834.646 1855.96 887.193 1830.32 941.563C1800.41 1001.01 1758.09 1053.46 1658.22 1041.16C1501.58 1021.85 1341.26 913.919 1165.08 831.601C976.869 743.673 770.014 706.391 599.827 712.333C498.302 715.891 342.6 732.792 134.022 864.702C12.3645 941.636 -92.4321 1036.37 -206.468 1119.69C-318.248 1201.34 -438.019 1262.81 -576.436 1284.23L-575.334 1298.66Z" fill="#EB6EA7"/>
</g>
<g filter="url(#filter3_d_898_8747)">
<path fill-rule="evenodd" clip-rule="evenodd" d="M-573.262 1325.92C-374.256 1207.52 -191.35 1094.27 20.8309 1050.28C226.769 973.317 371.084 916.056 542.571 857.412C691.325 806.551 869.178 796.845 1020.06 831.45C1180.3 868.209 1314.24 921.889 1389.94 889.653C1464.96 857.72 1500.8 801.709 1573.41 753.342C1701.39 668.073 1846.3 625.198 1987.25 625.179C2092.93 625.134 2191.56 651.524 2272.66 702.157L2273.19 709.137C2215.4 672.359 2148.32 648.316 2077.83 636.687C1950.8 615.746 1805.64 637.318 1665.93 710.446C1618.22 735.4 1572.58 757.478 1534.9 787.031C1483.19 822.43 1448.55 875.701 1380.21 894.469C1312.98 912.919 1212.13 898.835 1033.28 837.652C898.39 814.091 767.653 798.167 645.387 828.08C505.048 862.393 379.374 925.071 242.346 976.39C139.382 1014.94 36.2689 1041.63 -92.9226 1087.51C-218.67 1132.21 -371.639 1188.24 -567.72 1307.85C-569.86 1309.11 -572.097 1310.21 -574.411 1311.14L-573.262 1325.92Z" fill="#8ED8F7"/>
</g>
<g filter="url(#filter4_d_898_8747)">
<path fill-rule="evenodd" clip-rule="evenodd" d="M-452.778 2036.1C-441.779 2012.81 -430.606 1989.15 -418.999 1963.23C-361.133 1837.99 -283.009 1706.97 -172.443 1557.97C-58.4097 1404.31 88.2535 1231.65 291.871 1041.18C607.477 823.953 788.249 752.486 981.038 729.223C1162.5 707.347 1285.26 697.574 1417.38 664.822C1580.63 624.348 1733.57 578.112 1886.84 552.28C2032.96 527.646 2157.52 527.604 2261.54 555.678L2261.92 560.614C2248.88 557.196 2235.96 554.321 2222.75 551.84C2052.44 515.538 1831.33 533.892 1580.37 627.547C1447.09 655.383 1326.47 690.737 1187.81 712.144C1090.77 727.124 999.79 723.108 879.127 739.571C757.051 756.221 605.878 819.322 392.494 960.113C341.385 993.821 294.628 1038.93 245.391 1083.36C68.1062 1252.11 -66.6919 1412.7 -176.012 1560.45C-282.3 1704.12 -362.968 1834.32 -426.109 1957.14C-440.81 1985.76 -455.749 2012.37 -469.306 2039.54C-463.888 2038.4 -458.482 2037.24 -452.778 2036.1Z" fill="#F4821F"/>
</g>
<g filter="url(#filter5_d_898_8747)">
<path fill-rule="evenodd" clip-rule="evenodd" d="M-557.541 1531.84C-483.043 1419.84 -399.726 1312.78 -287.001 1213.4C-170.877 1110.98 -24.9014 1011.59 180.969 911.153C329.94 838.452 447.224 773.967 579.76 737.583C792.065 679.313 950.02 672.821 1070.48 657.457C1190.76 642.117 1276.11 606.818 1357.08 579.655C1492.66 518.267 1632.97 466.787 1776.76 425.672C1964.99 371.948 2125.07 386.766 2253.34 448.15L2254.05 457.483C2237.95 449.749 2221.37 442.907 2204.41 436.993C2048.73 380.088 1855.49 393.426 1636.35 482.024C1514.77 531.211 1400.22 576.492 1281.54 617.987C1191.44 649.506 1102.27 663.033 978.649 671.839C855.027 680.644 694.642 704.252 467.595 781.117C365.736 815.591 253.917 874.122 129.972 937.27C-31.2635 1015.98 -160.326 1109.44 -272.818 1210.06C-382.415 1308.16 -475.606 1415.03 -558.393 1520.67L-557.541 1531.84Z" fill="white"/>
</g>
<path fill-rule="evenodd" clip-rule="evenodd" d="M-556.409 1546.65C-269.69 1440.14 -100.841 1220.02 66.3062 1027.68C278.832 783.182 474.971 605.346 750.731 600.752C951.412 597.467 1088.5 661.437 1260.26 725.328C1572.12 841.416 1697.75 728.907 1817.03 638.866C1939.14 521.43 2064.87 431.81 2198.3 391.325C2215.32 386.165 2231.72 381.604 2247.96 378.158L2248.32 382.914C2133.48 406.203 2011.13 476.48 1882.59 587.958C1809.33 651.499 1745.21 721.242 1652.08 763.564C1550.2 809.843 1437.29 785.146 1311.6 742.089C1188.24 699.847 1051.25 647.291 892.542 612.221C839.38 600.483 773.03 593.413 705.071 601.52C443.798 632.709 249.291 812.677 24.2861 1068.46C-132.762 1246.93 -296.819 1440.98 -557.788 1528.58L-556.409 1546.65Z" fill="#FFF200"/>
<g filter="url(#filter6_d_898_8747)">
<path fill-rule="evenodd" clip-rule="evenodd" d="M-567.69 1398.88C-562.353 1396.81 -556.762 1394.19 -551.199 1391.74C-354.524 1284.38 -210.925 1180.22 -81.1896 1089.72C50.6295 997.776 167.555 921.896 320.101 861.719C560.654 766.783 753.71 723.311 953.442 754.869C1119.69 781.151 1275.39 861.803 1409.78 899.181C1543.23 936.28 1648.63 927.492 1697.64 856.957C1718.59 824.478 1729.66 787.208 1745.41 751.014C1818.38 565.591 1958.16 444.76 2102.12 393.293C2151.12 375.772 2199.6 366.535 2247.2 368.247L2247.1 366.96C2234.61 366.45 2222.17 366.657 2209.5 367.254C2100.32 373.583 1982.39 431.266 1882.84 553.329C1830.98 616.891 1778.62 677.893 1739.21 748.959C1697.28 817.65 1666.32 889.515 1553.5 901.268C1414.81 900.091 1253.89 821.141 1062.09 771.227C855.757 717.517 613.032 747.881 388.516 828.896C274.051 870.199 174.68 922.756 60.656 987.834C-52.685 1052.51 -175.849 1136.21 -337.244 1248.82C-413.876 1302.31 -493.523 1339.46 -570.037 1368.14L-567.69 1398.88Z" fill="#ED1C23"/>
</g>
<g filter="url(#filter7_d_898_8747)">
<path fill-rule="evenodd" clip-rule="evenodd" d="M-595.731 1031.49C-403.484 1002.67 -251.295 983.688 -121.962 968.248C38.6813 931.152 161.084 912.24 286.342 873.814C503.943 805.702 726.925 731.644 937.076 763.43C1126.89 792.144 1298.63 886.836 1466.38 931.416C1646.14 969.925 1746.74 925.649 1770.39 816.251C1795.49 700.114 1844.79 604.373 1944.64 532.564C2048.81 445.512 2157.51 425.439 2253.26 447.004L2253.68 452.498C2228.07 446.911 2201.86 445 2175.03 445.805C2069.87 448.999 1954.91 499.947 1865.94 615.636C1813.59 676.477 1790 740.087 1773.98 813.399C1731.89 1006.07 1423.92 929.032 1056.58 793.119C926.042 744.836 784.349 739.787 658.406 762.82C507.125 790.486 362.437 850.534 204.43 899.564C84.6549 930.029 -18.1105 951.093 -140.666 969.124C-262.252 987.031 -403.619 996.57 -596.263 1023.96L-595.731 1031.49Z" fill="#00AEEF"/>
</g>
<g filter="url(#filter8_d_898_8747)">
<path fill-rule="evenodd" clip-rule="evenodd" d="M-566.552 1413.75C-497.237 1366.51 -431.904 1316.47 -367.394 1270.72C-199.866 1134.27 -38.443 1063.46 100.273 1003C241.661 941.43 358.92 892.091 452.36 858.22C606.079 802.528 758.501 763.873 894.878 772.216C1036.08 780.843 1158.21 819.739 1255.7 806.47C1364.5 791.665 1434.35 748.704 1526.91 708.692C1660.89 650.715 1796.68 608.867 1938.71 599.449C2057.63 591.544 2160.96 612.028 2245.48 653.253C2253.81 657.331 2261.73 661.39 2269.86 665.744L2269.75 664.288C2250.3 653.61 2230.05 644.273 2209.15 636.35C2100.22 592.795 1969.56 580.144 1821.21 622.369C1690.28 639.385 1568 681.536 1447.65 724.651C1367.99 753.178 1287.92 777.123 1175.22 775.607C1062.52 774.091 912.807 730.791 701.778 767.421C485.191 805.017 329.669 892.599 84.5514 1005.85C-195.178 1100.98 -374.169 1246.54 -567.807 1393.55C-568.093 1393.57 -568.078 1393.77 -568.078 1393.77L-566.552 1413.75Z" fill="#2D3191"/>
</g>
<path fill-rule="evenodd" clip-rule="evenodd" d="M-198.637 1355.26C27.1917 1250.84 204.923 1050.01 374.169 898.961C531.353 758.669 676.647 669.611 768.635 642.239C935.841 592.497 1071.53 590.714 1251.9 661.63C1441.08 736.015 1557.69 829.35 1727.31 832.086C1860.56 834.219 1960.47 770.68 2053.32 728.66C2129.82 688.42 2201.27 657.826 2267.69 636.876L2267.66 636.507C2261.99 638.234 2256.42 640.183 2250.7 642.034C2157.32 672.39 2069.01 729.769 1960.85 775.625C1814.03 837.882 1662.54 863.848 1404.28 732.215C1338.26 698.553 1273.26 664.131 1193.31 640.548C1006.31 585.313 853.001 597.999 708.493 661.383C560.821 726.142 417.632 854.082 233.518 1027.24C77.2091 1174.24 -47.2728 1275.82 -191.69 1339.83C-194.472 1345.23 -195.583 1349.51 -198.637 1355.26Z" fill="#ED1C23"/>
<path fill-rule="evenodd" clip-rule="evenodd" d="M-551.088 1616.3C-502.021 1603.53 -449.78 1590.52 -405.796 1556.07C-146.96 1353.78 -1.04292 1097.98 170.946 912.43C334.153 736.255 516.325 620.793 764.032 627.096C929.865 631.335 1047.95 680.018 1201.43 743.068C1518.05 873.154 1675.23 787.562 1798.78 714.204C1900.73 653.668 1989.45 589.83 2087.31 548.16C2147.84 522.366 2203.68 503.401 2256.85 494.569L2257.03 496.942C2178.42 509.963 2093.1 540.717 2002.21 593.278C1934.55 627.527 1870.3 669.54 1804.27 714.326C1718.29 762.832 1632.68 820.015 1517.22 820.304C1401.03 820.609 1259.05 768.155 1052.6 688.769C960.395 653.305 873.232 626.442 764.887 626.86C504.912 627.913 335.229 748.539 160.345 921.543C-2.96696 1120.89 -166.453 1374.86 -454.004 1572.84C-474.133 1586.71 -513.868 1592.14 -552.231 1601.33L-551.088 1616.3Z" fill="#00AEEF"/>
<g filter="url(#filter9_d_898_8747)">
<path fill-rule="evenodd" clip-rule="evenodd" d="M-568.562 1387.37C-555.416 1377.52 -542.28 1367.68 -529.153 1357.85C-409.956 1259.58 -300.458 1157.95 -181.447 1072.15C-60.7484 985.158 70.8249 913.846 234.808 858.292C466.854 779.681 635.737 695.712 846.806 721.801C1245.41 771.072 1344.02 737.9 1460.44 664.104C1547.05 609.222 1635.3 553.693 1736.95 506.519C1907.85 427.18 2062.24 417.299 2193.24 460.833C2214.89 468.062 2235.96 476.719 2256.29 486.739L2257.28 499.701C2230.52 486.376 2202.46 475.463 2173.48 467.105C2042.25 428.823 1885.11 445.433 1719.03 529.379C1644.44 567.086 1572.8 604.006 1509.43 649.492C1378.91 721.085 1291.56 784.468 864.168 725.239C628.504 692.593 451.978 780.074 183.24 875.808C36.9694 923.22 -87.4113 995.167 -208.746 1081.76C-327.85 1166.77 -444.608 1263.68 -571.13 1353.73L-568.562 1387.37Z" fill="#FFF200"/>
</g>
</g>
<defs>
<filter id="filter0_d_898_8747" x="-629.503" y="0.460938" width="2906.25" height="1284.65" filterUnits="userSpaceOnUse" color-interpolation-filters="sRGB">
<feFlood flood-opacity="0" result="BackgroundImageFix"/>
<feColorMatrix in="SourceAlpha" type="matrix" values="0 0 0 0 0 0 0 0 0 0 0 0 0 0 0 0 0 0 127 0" result="hardAlpha"/>
<feOffset dx="1" dy="1"/>
<feGaussianBlur stdDeviation="25"/>
<feComposite in2="hardAlpha" operator="out"/>
<feColorMatrix type="matrix" values="0 0 0 0 1 0 0 0 0 0.179167 0 0 0 0 0.179167 0 0 0 1 0"/>
<feBlend mode="normal" in2="BackgroundImageFix" result="effect1_dropShadow_898_8747"/>
<feBlend mode="normal" in="SourceGraphic" in2="effect1_dropShadow_898_8747" result="shape"/>
</filter>
<filter id="filter1_d_898_8747" x="-643.301" y="264.383" width="2937.87" height="873.729" filterUnits="userSpaceOnUse" color-interpolation-filters="sRGB">
<feFlood flood-opacity="0" result="BackgroundImageFix"/>
<feColorMatrix in="SourceAlpha" type="matrix" values="0 0 0 0 0 0 0 0 0 0 0 0 0 0 0 0 0 0 127 0" result="hardAlpha"/>
<feOffset dx="1" dy="1"/>
<feGaussianBlur stdDeviation="25"/>
<feComposite in2="hardAlpha" operator="out"/>
<feColorMatrix type="matrix" values="0 0 0 0 0.984314 0 0 0 0 0.811765 0 0 0 0 0.294118 0 0 0 1 0"/>
<feBlend mode="normal" in2="BackgroundImageFix" result="effect1_dropShadow_898_8747"/>
<feBlend mode="normal" in="SourceGraphic" in2="effect1_dropShadow_898_8747" result="shape"/>
</filter>
<filter id="filter2_d_898_8747" x="-625.436" y="450.544" width="2933.8" height="899.113" filterUnits="userSpaceOnUse" color-interpolation-filters="sRGB">
<feFlood flood-opacity="0" result="BackgroundImageFix"/>
<feColorMatrix in="SourceAlpha" type="matrix" values="0 0 0 0 0 0 0 0 0 0 0 0 0 0 0 0 0 0 127 0" result="hardAlpha"/>
<feOffset dx="1" dy="1"/>
<feGaussianBlur stdDeviation="25"/>
<feComposite in2="hardAlpha" operator="out"/>
<feColorMatrix type="matrix" values="0 0 0 0 1 0 0 0 0 0.583333 0 0 0 0 0.730392 0 0 0 1 0"/>
<feBlend mode="normal" in2="BackgroundImageFix" result="effect1_dropShadow_898_8747"/>
<feBlend mode="normal" in="SourceGraphic" in2="effect1_dropShadow_898_8747" result="shape"/>
</filter>
<filter id="filter3_d_898_8747" x="-623.411" y="576.179" width="2947.6" height="800.74" filterUnits="userSpaceOnUse" color-interpolation-filters="sRGB">
<feFlood flood-opacity="0" result="BackgroundImageFix"/>
<feColorMatrix in="SourceAlpha" type="matrix" values="0 0 0 0 0 0 0 0 0 0 0 0 0 0 0 0 0 0 127 0" result="hardAlpha"/>
<feOffset dx="1" dy="1"/>
<feGaussianBlur stdDeviation="25"/>
<feComposite in2="hardAlpha" operator="out"/>
<feColorMatrix type="matrix" values="0 0 0 0 0.552941 0 0 0 0 0.847059 0 0 0 0 0.968627 0 0 0 1 0"/>
<feBlend mode="normal" in2="BackgroundImageFix" result="effect1_dropShadow_898_8747"/>
<feBlend mode="normal" in="SourceGraphic" in2="effect1_dropShadow_898_8747" result="shape"/>
</filter>
<filter id="filter4_d_898_8747" x="-518.306" y="485.194" width="2831.22" height="1605.34" filterUnits="userSpaceOnUse" color-interpolation-filters="sRGB">
<feFlood flood-opacity="0" result="BackgroundImageFix"/>
<feColorMatrix in="SourceAlpha" type="matrix" values="0 0 0 0 0 0 0 0 0 0 0 0 0 0 0 0 0 0 127 0" result="hardAlpha"/>
<feOffset dx="1" dy="1"/>
<feGaussianBlur stdDeviation="25"/>
<feComposite in2="hardAlpha" operator="out"/>
<feColorMatrix type="matrix" values="0 0 0 0 0.956863 0 0 0 0 0.509804 0 0 0 0 0.121569 0 0 0 1 0"/>
<feBlend mode="normal" in2="BackgroundImageFix" result="effect1_dropShadow_898_8747"/>
<feBlend mode="normal" in="SourceGraphic" in2="effect1_dropShadow_898_8747" result="shape"/>
</filter>
<filter id="filter5_d_898_8747" x="-607.393" y="343.624" width="2912.45" height="1239.21" filterUnits="userSpaceOnUse" color-interpolation-filters="sRGB">
<feFlood flood-opacity="0" result="BackgroundImageFix"/>
<feColorMatrix in="SourceAlpha" type="matrix" values="0 0 0 0 0 0 0 0 0 0 0 0 0 0 0 0 0 0 127 0" result="hardAlpha"/>
<feOffset dx="1" dy="1"/>
<feGaussianBlur stdDeviation="25"/>
<feComposite in2="hardAlpha" operator="out"/>
<feColorMatrix type="matrix" values="0 0 0 0 1 0 0 0 0 1 0 0 0 0 1 0 0 0 1 0"/>
<feBlend mode="normal" in2="BackgroundImageFix" result="effect1_dropShadow_898_8747"/>
<feBlend mode="normal" in="SourceGraphic" in2="effect1_dropShadow_898_8747" result="shape"/>
</filter>
<filter id="filter6_d_898_8747" x="-619.037" y="317.671" width="2917.24" height="1132.21" filterUnits="userSpaceOnUse" color-interpolation-filters="sRGB">
<feFlood flood-opacity="0" result="BackgroundImageFix"/>
<feColorMatrix in="SourceAlpha" type="matrix" values="0 0 0 0 0 0 0 0 0 0 0 0 0 0 0 0 0 0 127 0" result="hardAlpha"/>
<feOffset dx="1" dy="1"/>
<feGaussianBlur stdDeviation="25"/>
<feComposite in2="hardAlpha" operator="out"/>
<feColorMatrix type="matrix" values="0 0 0 0 1 0 0 0 0 0.208333 0 0 0 0 0.208333 0 0 0 1 0"/>
<feBlend mode="normal" in2="BackgroundImageFix" result="effect1_dropShadow_898_8747"/>
<feBlend mode="normal" in="SourceGraphic" in2="effect1_dropShadow_898_8747" result="shape"/>
</filter>
<filter id="filter7_d_898_8747" x="-645.263" y="390.022" width="2949.94" height="692.472" filterUnits="userSpaceOnUse" color-interpolation-filters="sRGB">
<feFlood flood-opacity="0" result="BackgroundImageFix"/>
<feColorMatrix in="SourceAlpha" type="matrix" values="0 0 0 0 0 0 0 0 0 0 0 0 0 0 0 0 0 0 127 0" result="hardAlpha"/>
<feOffset dx="1" dy="1"/>
<feGaussianBlur stdDeviation="25"/>
<feComposite in2="hardAlpha" operator="out"/>
<feColorMatrix type="matrix" values="0 0 0 0 0 0 0 0 0 0.682353 0 0 0 0 0.937255 0 0 0 1 0"/>
<feBlend mode="normal" in2="BackgroundImageFix" result="effect1_dropShadow_898_8747"/>
<feBlend mode="normal" in="SourceGraphic" in2="effect1_dropShadow_898_8747" result="shape"/>
</filter>
<filter id="filter8_d_898_8747" x="-617.078" y="547.428" width="2937.94" height="917.324" filterUnits="userSpaceOnUse" color-interpolation-filters="sRGB">
<feFlood flood-opacity="0" result="BackgroundImageFix"/>
<feColorMatrix in="SourceAlpha" type="matrix" values="0 0 0 0 0 0 0 0 0 0 0 0 0 0 0 0 0 0 127 0" result="hardAlpha"/>
<feOffset dx="1" dy="1"/>
<feGaussianBlur stdDeviation="25"/>
<feComposite in2="hardAlpha" operator="out"/>
<feColorMatrix type="matrix" values="0 0 0 0 0.233333 0 0 0 0 0.264 0 0 0 0 1 0 0 0 1 0"/>
<feBlend mode="normal" in2="BackgroundImageFix" result="effect1_dropShadow_898_8747"/>
<feBlend mode="normal" in="SourceGraphic" in2="effect1_dropShadow_898_8747" result="shape"/>
</filter>
<filter id="filter9_d_898_8747" x="-620.13" y="386.219" width="2928.41" height="1052.15" filterUnits="userSpaceOnUse" color-interpolation-filters="sRGB">
<feFlood flood-opacity="0" result="BackgroundImageFix"/>
<feColorMatrix in="SourceAlpha" type="matrix" values="0 0 0 0 0 0 0 0 0 0 0 0 0 0 0 0 0 0 127 0" result="hardAlpha"/>
<feOffset dx="1" dy="1"/>
<feGaussianBlur stdDeviation="25"/>
<feComposite in2="hardAlpha" operator="out"/>
<feColorMatrix type="matrix" values="0 0 0 0 1 0 0 0 0 0.94902 0 0 0 0 0 0 0 0 1 0"/>
<feBlend mode="normal" in2="BackgroundImageFix" result="effect1_dropShadow_898_8747"/>
<feBlend mode="normal" in="SourceGraphic" in2="effect1_dropShadow_898_8747" result="shape"/>
</filter>
</defs>
</svg>
