<svg width="40" height="40" viewBox="0 0 40 40" fill="none" xmlns="http://www.w3.org/2000/svg">
<path d="M20.1 34L25.8 28.35L20.1 22.7L18 24.8L20.15 26.95C19.2167 26.9833 18.3087 26.8333 17.426 26.5C16.542 26.1667 15.75 25.65 15.05 24.95C14.3833 24.2833 13.8747 23.5167 13.524 22.65C13.1747 21.7833 13 20.9167 13 20.05C13 19.4833 13.0753 18.9167 13.226 18.35C13.3753 17.7833 13.5833 17.2333 13.85 16.7L11.65 14.5C11.0833 15.3333 10.6667 16.2167 10.4 17.15C10.1333 18.0833 10 19.0333 10 20C10 21.2667 10.25 22.5167 10.75 23.75C11.25 24.9833 11.9833 26.0833 12.95 27.05C13.9167 28.0167 15 28.742 16.2 29.226C17.4 29.7087 18.6333 29.9667 19.9 30L18 31.9L20.1 34ZM28.35 25.5C28.9167 24.6667 29.3333 23.7833 29.6 22.85C29.8667 21.9167 30 20.9667 30 20C30 18.7333 29.7587 17.4747 29.276 16.224C28.792 14.9747 28.0667 13.8667 27.1 12.9C26.1333 11.9333 25.042 11.2167 23.826 10.75C22.6087 10.2833 21.3667 10.05 20.1 10.05L22 8.1L19.9 6L14.2 11.65L19.9 17.3L22 15.2L19.8 13C20.7 13 21.6167 13.1747 22.55 13.524C23.4833 13.8747 24.2833 14.3833 24.95 15.05C25.6167 15.7167 26.1253 16.4833 26.476 17.35C26.8253 18.2167 27 19.0833 27 19.95C27 20.5167 26.9247 21.0833 26.774 21.65C26.6247 22.2167 26.4167 22.7667 26.15 23.3L28.35 25.5ZM20 40C17.2333 40 14.6333 39.4747 12.2 38.424C9.76667 37.3747 7.65 35.95 5.85 34.15C4.05 32.35 2.62533 30.2333 1.576 27.8C0.525334 25.3667 0 22.7667 0 20C0 17.2333 0.525334 14.6333 1.576 12.2C2.62533 9.76667 4.05 7.65 5.85 5.85C7.65 4.05 9.76667 2.62467 12.2 1.574C14.6333 0.524667 17.2333 0 20 0C22.7667 0 25.3667 0.524667 27.8 1.574C30.2333 2.62467 32.35 4.05 34.15 5.85C35.95 7.65 37.3747 9.76667 38.424 12.2C39.4747 14.6333 40 17.2333 40 20C40 22.7667 39.4747 25.3667 38.424 27.8C37.3747 30.2333 35.95 32.35 34.15 34.15C32.35 35.95 30.2333 37.3747 27.8 38.424C25.3667 39.4747 22.7667 40 20 40ZM20 36C24.4667 36 28.25 34.45 31.35 31.35C34.45 28.25 36 24.4667 36 20C36 15.5333 34.45 11.75 31.35 8.65C28.25 5.55 24.4667 4 20 4C15.5333 4 11.75 5.55 8.65 8.65C5.55 11.75 4 15.5333 4 20C4 24.4667 5.55 28.25 8.65 31.35C11.75 34.45 15.5333 36 20 36Z" fill="white"/>
</svg>
