<svg width="40" height="40" viewBox="0 0 40 40" fill="none" xmlns="http://www.w3.org/2000/svg">
<path d="M8.58594 31.3895L18.0605 31.3571L38.74 10.7545C39.5515 9.9382 39.9981 8.85408 39.9981 7.70085C39.9981 6.54763 39.5515 5.46351 38.74 4.64718L35.3349 1.22206C33.7118 -0.410593 30.88 -0.401955 29.2697 1.21558L8.58594 21.8225V31.3895ZM32.2991 4.27573L35.7106 7.69437L32.2819 11.1109L28.8769 7.6879L32.2991 4.27573ZM12.8799 23.6236L25.826 10.7243L29.2311 14.1494L16.2871 27.0444L12.8799 27.0552V23.6236Z" fill="white"/>
<path d="M4.29392 39.9999H34.3513C36.7194 39.9999 38.6453 38.0628 38.6453 35.6808V16.9614L34.3513 21.2806V35.6808H11.074C11.0182 35.6808 10.9602 35.7023 10.9044 35.7023C10.8336 35.7023 10.7627 35.6829 10.6897 35.6808H4.29392V5.44639H18.9942L23.2881 1.1272H4.29392C1.92582 1.1272 0 3.06436 0 5.44639V35.6808C0 38.0628 1.92582 39.9999 4.29392 39.9999Z" fill="white"/>
</svg>
