<svg width="46" height="46" viewBox="0 0 46 46" fill="none" xmlns="http://www.w3.org/2000/svg">
<path d="M25.2222 33V35.5C25.2222 37.4891 24.5198 39.3968 23.2696 40.8033C22.0194 42.2098 20.3237 43 18.5556 43H9.66667C7.89856 43 6.20286 42.2098 4.95262 40.8033C3.70238 39.3968 3 37.4891 3 35.5V10.5C3 8.51088 3.70238 6.60322 4.95262 5.1967C6.20286 3.79018 7.89856 3 9.66667 3H18.5556C20.3237 3 22.0194 3.79018 23.2696 5.1967C24.5198 6.60322 25.2222 8.51088 25.2222 10.5V13M34.1111 33L43 23L34.1111 33ZM43 23L34.1111 13L43 23ZM43 23H11.8889H43Z" stroke="white" stroke-width="5" stroke-linecap="round" stroke-linejoin="round"/>
</svg>
