<svg width="41" height="40" viewBox="0 0 41 40" fill="none" xmlns="http://www.w3.org/2000/svg">
<g id="profile">
<path id="Vector" fill-rule="evenodd" clip-rule="evenodd" d="M20.6357 38C30.5767 38 38.6357 29.941 38.6357 20C38.6357 10.059 30.5767 2 20.6357 2C10.6947 2 2.63574 10.059 2.63574 20C2.63574 29.941 10.6947 38 20.6357 38ZM20.6357 40C31.6817 40 40.6357 31.046 40.6357 20C40.6357 8.954 31.6817 0 20.6357 0C9.58974 0 0.635742 8.954 0.635742 20C0.635742 31.046 9.58974 40 20.6357 40Z" fill="white"/>
<path id="Vector_2" d="M8.63574 31.63C8.63574 30.597 9.40774 29.724 10.4357 29.61C18.1507 28.756 23.1557 28.833 30.8537 29.629C31.2382 29.6694 31.6025 29.8208 31.9022 30.0648C32.202 30.3089 32.4242 30.6349 32.5417 31.0031C32.6592 31.3714 32.667 31.7658 32.564 32.1384C32.461 32.5109 32.2517 32.8454 31.9617 33.101C22.8767 41.02 17.6847 40.911 9.27574 33.109C8.86574 32.729 8.63574 32.189 8.63574 31.631V31.63Z" fill="white"/>
<path id="Vector_3" fill-rule="evenodd" clip-rule="evenodd" d="M30.7507 30.623C23.1137 29.833 18.1807 29.759 10.5447 30.604C10.2934 30.6333 10.0617 30.7543 9.89395 30.9438C9.72623 31.1333 9.63429 31.378 9.63575 31.631C9.63575 31.917 9.75475 32.188 9.95575 32.376C14.1237 36.242 17.2817 37.989 20.3687 38C23.4667 38.011 26.7947 36.278 31.3047 32.348C31.448 32.2205 31.5512 32.0541 31.6016 31.869C31.6521 31.684 31.6478 31.4883 31.5891 31.3056C31.5304 31.123 31.4199 30.9614 31.2711 30.8404C31.1223 30.7194 30.9415 30.6442 30.7507 30.624V30.623ZM10.3257 28.616C18.1217 27.753 23.1997 27.831 30.9577 28.634C31.536 28.6944 32.0842 28.9221 32.5351 29.2892C32.986 29.6563 33.3201 30.1469 33.4965 30.7009C33.6728 31.255 33.6838 31.8484 33.5281 32.4086C33.3724 32.9688 33.0567 33.4715 32.6197 33.855C28.0448 37.843 24.2347 40.015 20.3627 40C16.4797 39.986 12.8377 37.777 8.59675 33.842C8.2931 33.5592 8.05104 33.2168 7.88569 32.8362C7.72034 32.4556 7.63525 32.045 7.63575 31.63C7.63429 30.8845 7.90795 30.1646 8.40431 29.6082C8.90067 29.0519 9.58484 28.6982 10.3257 28.615V28.616Z" fill="white"/>
<path id="Vector_4" d="M28.6357 16C28.6357 18.1217 27.7929 20.1566 26.2926 21.6569C24.7923 23.1571 22.7575 24 20.6357 24C18.514 24 16.4792 23.1571 14.9789 21.6569C13.4786 20.1566 12.6357 18.1217 12.6357 16C12.6357 13.8783 13.4786 11.8434 14.9789 10.3431C16.4792 8.84285 18.514 8 20.6357 8C22.7575 8 24.7923 8.84285 26.2926 10.3431C27.7929 11.8434 28.6357 13.8783 28.6357 16Z" fill="white"/>
<path id="Vector_5" fill-rule="evenodd" clip-rule="evenodd" d="M20.6357 22C22.227 22 23.7532 21.3679 24.8784 20.2426C26.0036 19.1174 26.6357 17.5913 26.6357 16C26.6357 14.4087 26.0036 12.8826 24.8784 11.7574C23.7532 10.6321 22.227 10 20.6357 10C19.0444 10 17.5183 10.6321 16.3931 11.7574C15.2679 12.8826 14.6357 14.4087 14.6357 16C14.6357 17.5913 15.2679 19.1174 16.3931 20.2426C17.5183 21.3679 19.0444 22 20.6357 22ZM20.6357 24C22.7575 24 24.7923 23.1571 26.2926 21.6569C27.7929 20.1566 28.6357 18.1217 28.6357 16C28.6357 13.8783 27.7929 11.8434 26.2926 10.3431C24.7923 8.84285 22.7575 8 20.6357 8C18.514 8 16.4792 8.84285 14.9789 10.3431C13.4786 11.8434 12.6357 13.8783 12.6357 16C12.6357 18.1217 13.4786 20.1566 14.9789 21.6569C16.4792 23.1571 18.514 24 20.6357 24Z" fill="white"/>
</g>
</svg>
