<svg width="47" height="45" viewBox="0 0 47 45" fill="none" xmlns="http://www.w3.org/2000/svg">
<path d="M5.08231 13.3931H41.9188C43.0012 13.3931 44.0393 13.823 44.8047 14.5884C45.57 15.3538 46 16.3918 46 17.4742V39.3811C46 40.4638 45.5699 41.5022 44.8043 42.2678C44.0387 43.0334 43.0004 43.4635 41.9177 43.4635H5.08115C4.54521 43.4635 4.01451 43.3579 3.51936 43.1528C3.02422 42.9477 2.57431 42.6471 2.19534 42.2681C1.42998 41.5027 1 40.4647 1 39.3823V17.4765C1 16.3938 1.4301 15.3555 2.19568 14.5899C2.96126 13.8243 3.99961 13.3942 5.08231 13.3942V13.3931Z" stroke="white" stroke-width="2" stroke-linecap="round" stroke-linejoin="round"/>
<path d="M23.499 19.249C23.499 17.9344 22.4333 16.8687 21.1187 16.8687C19.804 16.8687 18.7383 17.9344 18.7383 19.249V19.2502C18.7383 20.5648 19.804 21.6306 21.1187 21.6306C22.4333 21.6306 23.499 20.5648 23.499 19.2502V19.249Z" stroke="white" stroke-width="2" stroke-linecap="round" stroke-linejoin="round"/>
<path d="M5.18865 19.7408V36.9308M36.616 16.8688C37.2473 16.8688 37.8527 17.1196 38.2991 17.566C38.7456 18.0125 38.9963 18.6179 38.9963 19.2492V19.2492C38.9965 19.5619 38.935 19.8716 38.8155 20.1605C38.6959 20.4495 38.5206 20.712 38.2996 20.9332C38.0785 21.1543 37.816 21.3298 37.5272 21.4495C37.2383 21.5692 36.9287 21.6308 36.616 21.6308V21.6308C36.3033 21.6308 35.9936 21.5692 35.7048 21.4495C35.4159 21.3298 35.1534 21.1543 34.9324 20.9332C34.7113 20.712 34.536 20.4495 34.4164 20.1605C34.2969 19.8716 34.2354 19.5619 34.2356 19.2492V19.2492C34.2356 18.6179 34.4864 18.0125 34.9328 17.566C35.3792 17.1196 35.9846 16.8688 36.616 16.8688ZM21.0702 8.62923C21.0702 7.62735 21.2675 6.63527 21.6509 5.70965C22.0343 4.78403 22.5963 3.94299 23.3047 3.23455C24.0132 2.52611 24.8542 1.96415 25.7798 1.58074C26.7055 1.19734 27.6975 1 28.6994 1C29.7013 1 30.6934 1.19734 31.619 1.58074C32.5446 1.96415 33.3857 2.52611 34.0941 3.23455C34.8025 3.94299 35.3645 4.78403 35.7479 5.70965C36.1313 6.63527 36.3287 7.62735 36.3287 8.62923H21.0702ZM21.0702 8.62923V13.4177V8.62923ZM36.3287 8.62923V13.1442V8.62923ZM10.3821 9.30077C10.3815 7.90147 10.7656 6.52894 11.4927 5.33333C12.2197 4.13772 13.2615 3.16509 14.5042 2.52183C15.7469 1.87857 17.1425 1.58947 18.5385 1.68615C19.9344 1.78283 21.2769 2.26157 22.419 3.07L10.3821 9.30077ZM10.3821 9.30077V13.0646V9.30077ZM5.18865 19.7408C5.18865 19.4282 5.25023 19.1186 5.36985 18.8298C5.48948 18.541 5.66481 18.2786 5.88585 18.0576C6.10689 17.8365 6.3693 17.6612 6.65811 17.5416C6.94691 17.422 7.25644 17.3604 7.56904 17.3604C7.88164 17.3604 8.19117 17.422 8.47997 17.5416C8.76877 17.6612 9.03119 17.8365 9.25222 18.0576C9.47326 18.2786 9.6486 18.541 9.76823 18.8298C9.88785 19.1186 9.94942 19.4282 9.94942 19.7408H5.18865ZM9.94827 36.9296C9.94827 37.2422 9.8867 37.5518 9.76707 37.8406C9.64745 38.1294 9.47211 38.3918 9.25107 38.6128C9.03003 38.8338 8.76762 39.0092 8.47882 39.1288C8.19002 39.2484 7.88048 39.31 7.56789 39.31C7.25529 39.31 6.94575 39.2484 6.65695 39.1288C6.36815 39.0092 6.10574 38.8338 5.8847 38.6128C5.66366 38.3918 5.48832 38.1294 5.3687 37.8406C5.24907 37.5518 5.1875 37.2422 5.1875 36.9296H9.94827ZM9.94827 36.9296V19.7385V36.9296Z" stroke="white" stroke-width="2" stroke-linecap="round" stroke-linejoin="round"/>
</svg>
